<?xml version="1.0" standalone="no"?>
<!DOCTYPE svg PUBLIC "-//W3C//DTD SVG 20010904//EN"
 "http://www.w3.org/TR/2001/REC-SVG-20010904/DTD/svg10.dtd">
<svg version="1.0" xmlns="http://www.w3.org/2000/svg"
 width="1006.000000pt" height="577.000000pt" viewBox="0 0 1006.000000 577.000000"
 preserveAspectRatio="xMidYMid meet">

<g transform="translate(0.000000,577.000000) scale(0.100000,-0.100000)"
fill="#ffffff" stroke="none">
<path d="M951 5733 c0 -16 58 -192 128 -393 109 -314 130 -367 152 -377 17 -8
51 -9 114 -3 50 4 128 11 175 14 101 8 116 12 124 32 5 13 -207 644 -233 693
-6 11 -28 25 -49 30 -38 11 -281 31 -365 31 -45 0 -47 -1 -46 -27z"/>
<path d="M2265 5035 c-5 -2 -54 -7 -108 -10 -71 -5 -100 -11 -104 -21 -3 -8
44 -156 103 -330 84 -243 114 -318 129 -326 15 -7 52 -1 135 22 117 32 140 43
140 65 0 7 -43 139 -96 292 -61 177 -103 284 -116 296 -18 15 -57 21 -83 12z"/>
<path d="M590 4894 c-8 -2 -134 -13 -280 -25 -146 -12 -273 -25 -283 -31 -9
-5 -17 -20 -17 -35 0 -38 309 -925 330 -947 10 -10 29 -18 43 -18 40 0 541
134 560 150 9 8 17 27 17 42 0 15 -31 117 -69 226 -38 110 -99 287 -136 394
-39 112 -77 204 -89 216 -22 23 -51 34 -76 28z"/>
<path d="M4113 4687 c-13 -28 -111 -252 -219 -497 -108 -245 -228 -519 -268
-610 l-72 -165 87 0 88 0 68 162 68 163 333 -3 334 -2 67 -160 67 -160 82 1
c46 1 86 4 88 7 3 3 -74 191 -171 419 -97 227 -222 522 -278 655 l-102 243
-75 0 -75 0 -22 -53z m230 -484 c119 -296 124 -312 103 -317 -28 -7 -465 -5
-493 3 -20 6 -16 19 103 301 156 371 143 345 153 334 5 -5 65 -149 134 -321z"/>
<path d="M2980 4529 c-19 -6 -59 -17 -87 -25 -39 -11 -53 -20 -53 -33 0 -10
43 -141 95 -291 52 -150 95 -275 95 -277 0 -18 194 66 202 88 3 8 -36 133 -87
279 -100 288 -94 279 -165 259z"/>
<path d="M5306 4290 c-68 -26 -122 -66 -149 -109 l-22 -36 -3 73 -3 72 -67 0
-67 0 3 -432 c2 -238 5 -434 7 -436 2 -2 33 -4 69 -5 l66 -2 0 235 c0 309 15
384 92 458 42 42 123 66 194 59 l52 -5 4 70 c2 38 1 72 -1 74 -12 12 -132 1
-175 -16z"/>
<path d="M6750 4292 c-63 -16 -127 -49 -180 -91 l-25 -20 47 -47 47 -48 40 28
c64 45 154 69 237 63 117 -8 176 -54 196 -150 7 -31 10 -58 7 -60 -2 -3 -66
-8 -141 -11 -217 -11 -329 -46 -405 -129 -47 -51 -63 -97 -63 -177 1 -137 104
-234 270 -254 116 -13 231 25 301 101 22 24 42 43 44 43 3 0 5 -27 5 -59 0
-38 4 -60 13 -63 14 -5 117 -2 121 3 1 2 -1 150 -4 329 -7 362 -11 382 -77
459 -40 47 -76 68 -148 87 -68 19 -206 16 -285 -4z m363 -524 c-5 -152 -105
-252 -253 -251 -127 0 -193 53 -193 154 0 116 111 169 348 165 l100 -1 -2 -67z"/>
<path d="M5541 4283 c0 -5 80 -201 177 -437 l177 -429 73 -1 c41 -1 77 1 82 4
7 4 241 585 325 808 l24 62 -77 0 -78 0 -128 -340 c-71 -187 -132 -340 -135
-340 -3 0 -66 153 -140 340 l-135 340 -83 0 c-46 0 -83 -3 -82 -7z"/>
<path d="M1695 4176 c-82 -22 -156 -45 -162 -49 -7 -5 -13 -19 -13 -32 0 -13
57 -189 127 -390 91 -263 131 -369 145 -376 15 -8 51 4 176 61 156 70 204 104
197 138 -5 28 -222 647 -234 671 -17 30 -59 26 -236 -23z"/>
<path d="M2643 3705 c-101 -48 -113 -57 -113 -80 0 -22 176 -546 216 -644 10
-24 19 -32 31 -29 38 10 223 150 229 173 4 15 -29 122 -96 317 -56 161 -107
299 -112 306 -16 19 -36 14 -155 -43z"/>
<path d="M7640 2415 l0 -655 65 0 65 0 0 72 0 72 46 -48 c27 -28 72 -60 112
-79 61 -29 76 -32 163 -32 90 0 100 3 171 38 90 44 148 103 189 191 52 112 56
246 8 371 -17 45 -38 76 -88 126 -91 91 -148 113 -296 113 -102 1 -114 -1
-165 -27 -30 -16 -71 -44 -90 -63 -20 -19 -39 -34 -43 -34 -4 0 -7 137 -7 305
l0 305 -65 0 -65 0 0 -655z m561 18 c164 -92 200 -330 72 -473 -123 -137 -349
-121 -450 31 -53 81 -63 214 -22 310 26 59 101 131 162 153 68 25 173 16 238
-21z"/>
<path d="M9680 2415 l0 -655 68 0 67 0 -3 655 -2 655 -65 0 -65 0 0 -655z"/>
<path d="M987 2931 c-137 -65 -253 -124 -258 -132 -5 -8 -9 -26 -9 -41 0 -24
296 -894 320 -938 6 -11 21 -20 33 -20 19 0 442 285 498 336 41 37 37 55 -111
481 -78 224 -146 413 -152 420 -22 27 -80 8 -321 -106z"/>
<path d="M5908 2375 l-3 -615 353 0 353 0 -3 66 -3 66 -251 -1 c-139 -1 -264
1 -278 5 l-26 6 0 544 0 544 -70 0 -70 0 -2 -615z"/>
<path d="M2379 2697 c-116 -79 -247 -172 -266 -190 -14 -12 -23 -32 -23 -50 0
-17 52 -181 116 -366 146 -420 139 -403 163 -399 20 3 272 235 297 274 9 12
16 35 16 51 1 28 -216 667 -235 691 -14 17 -30 15 -68 -11z"/>
<path d="M6920 2575 c-54 -16 -111 -46 -160 -84 l-25 -20 44 -45 44 -45 29 24
c16 14 61 34 100 46 127 39 252 9 291 -68 17 -34 28 -96 19 -109 -4 -5 -54
-10 -112 -12 -189 -5 -296 -35 -374 -103 -111 -98 -95 -292 29 -365 141 -82
331 -63 428 45 l35 39 6 -59 7 -59 62 0 63 0 -3 98 c-2 53 -4 189 -6 302 -3
181 -6 211 -25 261 -26 66 -69 110 -137 140 -66 29 -233 37 -315 14z m344
-482 c-7 -74 -46 -156 -90 -190 -45 -34 -118 -53 -180 -46 -92 9 -144 58 -146
136 -2 112 81 155 299 156 l122 1 -5 -57z"/>
<path d="M8940 2571 c-75 -24 -96 -36 -153 -90 -161 -150 -170 -449 -18 -614
150 -162 459 -166 616 -7 l47 48 -53 40 -52 40 -24 -29 c-13 -16 -53 -42 -88
-60 -130 -64 -276 -33 -354 75 -32 45 -64 132 -54 149 2 4 151 7 330 7 l326 0
-7 78 c-20 247 -158 383 -385 381 -44 0 -99 -8 -131 -18z m223 -115 c82 -30
133 -92 144 -177 l6 -39 -257 0 c-141 0 -256 2 -256 5 0 2 9 28 20 58 27 73
93 134 169 158 41 12 133 9 174 -5z"/>
<path d="M3921 1241 c-38 -35 -38 -41 -6 -90 l26 -38 -20 -109 c-11 -60 -22
-140 -26 -179 -9 -103 -15 -128 -37 -151 -17 -19 -18 -23 -4 -37 12 -11 16
-36 16 -90 0 -56 4 -78 16 -88 14 -11 20 -9 45 19 24 27 27 36 19 53 -6 11
-10 43 -8 71 l3 52 95 36 c142 54 185 81 213 136 24 48 29 90 17 149 -15 73
-50 133 -110 189 -49 45 -158 106 -191 106 -9 0 -31 -13 -48 -29z m158 -134
c70 -68 93 -112 98 -187 4 -56 2 -68 -16 -87 -46 -49 -183 -124 -198 -109 -8
8 21 162 48 250 25 81 24 111 -6 150 -14 18 -25 36 -25 39 0 16 59 -18 99 -56z"/>
<path d="M8111 1241 c-38 -35 -38 -45 -5 -88 l26 -34 -21 -117 c-11 -64 -23
-144 -26 -177 -10 -103 -16 -129 -36 -151 -18 -19 -19 -23 -5 -37 12 -11 16
-36 16 -90 0 -56 4 -78 16 -88 14 -11 20 -9 45 19 24 26 27 36 19 52 -5 10
-10 42 -10 70 0 57 -10 48 126 100 177 67 232 140 204 277 -15 75 -46 127
-109 186 -49 46 -159 107 -192 107 -9 0 -31 -13 -48 -29z m144 -123 c77 -68
107 -121 112 -197 4 -57 2 -69 -16 -88 -46 -49 -183 -124 -198 -109 -8 8 22
166 48 251 25 80 24 110 -6 149 -14 18 -25 35 -25 39 0 14 44 -9 85 -45z"/>
<path d="M6993 1228 c-42 -44 -106 -213 -148 -385 -13 -57 -25 -81 -56 -115
-30 -32 -39 -48 -34 -65 6 -24 20 -30 30 -13 15 24 21 6 14 -37 -4 -27 -8
-116 -8 -200 -1 -161 5 -183 49 -183 24 0 81 72 105 130 47 117 65 179 65 222
0 70 -25 52 -51 -36 -26 -84 -75 -186 -90 -186 -23 0 26 374 56 432 59 114 77
154 101 224 20 56 27 100 28 154 1 68 -1 75 -19 78 -12 2 -30 -7 -42 -20z m12
-161 c-14 -56 -80 -197 -91 -197 -8 0 5 57 27 119 20 56 69 145 75 138 2 -2
-3 -29 -11 -60z"/>
<path d="M9851 1107 c-6 -8 -17 -30 -26 -50 l-15 -36 -87 -3 -88 -3 -3 -42 -3
-42 71 -3 71 -3 -61 -100 c-56 -91 -114 -165 -130 -165 -4 0 -15 19 -25 43
-46 104 -73 104 -177 -2 -43 -44 -78 -77 -78 -75 0 3 14 45 31 94 33 96 33
134 -1 145 -26 8 -69 -25 -127 -99 -62 -80 -111 -126 -134 -126 -27 0 -46 43
-48 107 -1 25 -26 53 -48 53 -9 0 -43 -28 -77 -63 -61 -63 -138 -127 -151
-127 -4 0 -4 10 -1 23 23 79 25 119 10 155 -19 47 -49 79 -81 87 -20 5 -33 0
-54 -21 -16 -15 -29 -34 -29 -41 0 -21 -29 -75 -57 -105 -21 -22 -24 -31 -16
-55 l10 -28 34 35 c19 19 46 51 61 70 25 33 27 34 44 18 16 -15 16 -24 5 -85
-6 -37 -14 -83 -17 -100 -8 -45 17 -54 70 -24 71 40 120 74 158 110 21 19 40
32 43 29 3 -3 18 -29 33 -59 37 -73 65 -83 123 -43 24 16 72 58 107 94 l65 65
-7 -35 c-4 -19 -17 -63 -28 -98 -11 -34 -17 -69 -14 -78 14 -37 38 -26 130 65
51 50 100 91 108 91 19 0 44 -27 57 -63 6 -15 22 -32 35 -38 22 -10 30 -7 68
24 24 20 61 58 83 86 21 28 40 49 41 48 2 -1 -4 -31 -11 -67 -8 -36 -14 -86
-15 -113 0 -41 3 -49 24 -58 28 -13 37 -8 142 90 55 52 64 64 58 86 -3 14 -8
25 -11 25 -3 0 -29 -20 -57 -45 -29 -25 -57 -45 -61 -45 -14 0 2 112 30 218
l28 102 33 0 c34 0 34 1 34 45 0 38 -3 45 -19 45 -17 0 -18 4 -9 34 17 54 -10
89 -41 53z"/>
<path d="M5508 1037 c-39 -35 -45 -47 -41 -70 6 -30 19 -33 67 -13 26 11 35
22 45 59 23 79 -2 88 -71 24z"/>
<path d="M8998 1037 c-39 -35 -45 -47 -41 -70 6 -30 19 -33 67 -13 26 11 35
22 45 59 23 79 -2 88 -71 24z"/>
<path d="M4588 907 c-126 -96 -235 -184 -250 -202 -10 -11 -17 -33 -18 -48 l0
-28 37 28 c38 28 38 28 20 3 -30 -43 -38 -70 -27 -91 22 -39 89 -13 183 71
l57 52 0 -32 c0 -36 38 -80 70 -80 38 0 84 31 158 106 40 41 77 74 82 74 11 0
13 -52 4 -99 -5 -23 -11 -30 -22 -26 -24 9 -42 -15 -42 -55 0 -47 18 -100 34
-100 23 0 135 90 232 185 53 52 100 95 105 95 10 0 12 -53 3 -99 -5 -24 -11
-30 -24 -26 -24 8 -45 -21 -42 -58 4 -47 22 -97 36 -97 19 0 130 84 190 145
31 30 58 55 61 55 2 0 14 -23 26 -50 22 -52 50 -80 80 -80 10 0 39 17 66 38
26 20 59 45 73 53 l25 16 -3 -47 c-3 -38 0 -52 17 -69 59 -59 211 21 269 140
44 91 19 164 -56 164 -31 0 -42 4 -45 17 -10 35 -42 17 -127 -69 -113 -114
-159 -153 -181 -153 -24 0 -49 49 -49 94 0 37 -21 66 -47 66 -16 0 -150 -132
-180 -177 -21 -32 -35 -29 -22 5 19 48 40 152 41 199 0 34 -4 50 -18 60 -36
26 -24 36 -247 -196 -48 -50 -89 -91 -91 -91 -2 0 5 28 15 63 11 34 23 95 26
136 5 65 4 76 -12 87 -36 27 -35 27 -214 -160 -52 -55 -86 -70 -97 -42 -5 13
-11 59 -13 99 -2 32 -37 18 -120 -48 -46 -36 -87 -65 -92 -65 -27 0 43 73 200
207 23 20 32 35 28 46 -10 27 -52 20 -99 -16z m1345 -192 c-2 -33 -11 -48 -48
-83 -64 -62 -109 -50 -91 23 10 38 87 106 116 103 23 -3 25 -7 23 -43z"/>
<path d="M7118 779 c-85 -87 -99 -106 -93 -126 5 -23 7 -24 28 -10 22 14 22
14 19 -33 -4 -55 20 -90 61 -90 114 0 247 133 247 247 0 52 -37 87 -87 81 -24
-3 -33 0 -36 14 -10 35 -41 16 -139 -83z m180 -28 c26 -16 4 -77 -44 -121 -45
-41 -80 -51 -90 -25 -10 25 6 86 24 92 9 4 27 20 40 35 24 28 46 35 70 19z"/>
<path d="M7488 855 c-16 -13 -28 -31 -28 -40 0 -23 -28 -76 -57 -107 -21 -22
-24 -31 -16 -55 l10 -28 34 35 c19 19 46 51 61 70 25 33 27 34 44 18 16 -15
16 -24 5 -85 -6 -37 -14 -83 -17 -100 -7 -39 13 -52 52 -34 36 16 162 99 169
112 4 5 4 21 1 35 l-7 25 -37 -29 c-20 -16 -50 -37 -66 -48 l-30 -19 7 25 c25
88 27 122 8 164 -35 78 -88 102 -133 61z"/>
<path d="M6148 849 c-15 -11 -52 -53 -83 -94 -49 -66 -54 -77 -44 -96 11 -21
12 -20 51 25 22 26 43 45 45 42 3 -3 -7 -48 -22 -100 -22 -78 -25 -99 -15
-111 7 -8 17 -15 23 -15 6 0 52 41 103 90 50 50 98 90 106 90 19 0 44 -27 57
-63 6 -15 22 -32 35 -38 22 -10 30 -7 70 26 31 25 46 45 46 61 0 33 -14 37
-44 13 -26 -21 -28 -21 -41 -3 -8 11 -17 30 -20 44 -9 36 -34 60 -64 60 -19 0
-46 -21 -103 -79 -43 -44 -78 -76 -78 -72 0 4 14 44 30 89 34 94 36 114 14
136 -20 21 -33 20 -66 -5z"/>
</g>
</svg>
